# xmcd
#
# Track frame offsets: 
#        150
#        17332
#        37055
#        59340
#        78060
#        93780
#        108920
#        130142
#        147332
#        161760
#        181450
#        192995
#        206557
#        221659
#        243952
#        266275
#
# Disc length: 3827 seconds
#
# Revision: 1
# Processed by: cddbd v1.5.2PL0 Copyright (c) Steve Scherf et al.
# Submitted via: ExactAudioCopy v0.99pb4
#
DISCID=d60ef110
DTITLE=Eliades Ochoa - Grandes Exitos
DYEAR=2000
DGENRE=Cuban
TTITLE0=Al vaiven de mi carreta
TTITLE1=Maria Cristina
TTITLE2=Cuidatito, Compay Gallo
TTITLE3=El cuarto de Tula
TTITLE4=Yo soy del monte, compay
TTITLE5=No quiero celos contigo
TTITLE6=En la Casa de la Trova
TTITLE7=Alli donde tu sabes
TTITLE8=Ojos malignos
TTITLE9=Rita la caimana
TTITLE10=Las mujeres de Mayari
TTITLE11=Alma de mujer
TTITLE12=Beso discreto
TTITLE13=Me tenian amarrado con P
TTITLE14=Estoy hecho tierra
TTITLE15=En casa de Pedro el Cojo
EXTD=
EXTT0=
EXTT1=
EXTT2=
EXTT3=
EXTT4=
EXTT5=
EXTT6=
EXTT7=
EXTT8=
EXTT9=
EXTT10=
EXTT11=
EXTT12=
EXTT13=
EXTT14=
EXTT15=
PLAYORDER=
